<?xml version="1.0" standalone="no"?>
<!DOCTYPE svg PUBLIC "-//W3C//DTD SVG 20010904//EN"
 "http://www.w3.org/TR/2001/REC-SVG-20010904/DTD/svg10.dtd">
<svg version="1.0" xmlns="http://www.w3.org/2000/svg"
 width="980.000000pt" height="980.000000pt" viewBox="0 0 980.000000 980.000000"
 preserveAspectRatio="xMidYMid meet">
<metadata>
Created by potrace 1.14, written by Peter Selinger 2001-2017
</metadata>
<g transform="translate(0.000000,980.000000) scale(0.100000,-0.100000)"
fill="#000000" stroke="none">
<path d="M4500 9789 c-925 -80 -1777 -399 -2513 -942 -364 -268 -741 -643
-1020 -1014 -475 -632 -795 -1398 -916 -2196 -69 -450 -69 -1024 0 -1474 135
-892 500 -1701 1083 -2408 124 -151 464 -491 616 -616 800 -663 1726 -1041
2765 -1129 155 -13 615 -13 770 0 1040 88 1964 465 2765 1129 148 122 489 463
611 611 664 801 1041 1725 1129 2765 13 155 13 615 0 770 -54 637 -209 1207
-479 1760 -179 367 -379 678 -645 1000 -127 154 -467 494 -621 621 -801 661
-1722 1036 -2760 1124 -139 11 -646 11 -785 -1z m25 -2194 c89 -22 251 -106
328 -170 242 -201 332 -505 282 -965 -24 -224 -55 -384 -176 -905 -71 -303
-130 -587 -123 -594 5 -6 1 -12 74 114 530 920 850 1333 1218 1573 310 202
647 231 950 81 283 -139 377 -455 307 -1029 -21 -167 -44 -306 -115 -675 -115
-600 -135 -760 -127 -1023 7 -247 43 -365 145 -474 168 -180 428 -168 611 28
76 82 111 145 171 304 56 149 80 181 151 200 144 39 282 -86 330 -298 16 -73
12 -208 -10 -295 -57 -219 -212 -458 -399 -611 -137 -111 -299 -195 -465 -239
-69 -18 -109 -21 -252 -21 -152 0 -180 3 -267 26 -128 35 -254 87 -352 146
-92 54 -225 180 -283 267 -277 413 -312 1057 -112 2025 35 170 162 673 213
844 20 66 34 122 31 124 -7 8 -188 -162 -295 -277 -372 -401 -719 -900 -1094
-1576 -64 -115 -229 -435 -368 -710 -296 -589 -334 -660 -393 -719 -70 -69
-124 -91 -225 -91 -77 0 -92 3 -160 36 -90 43 -171 113 -211 183 l-29 51 0
235 c0 913 137 2281 335 3360 23 129 41 237 38 240 -2 3 -17 -9 -31 -26 -239
-280 -349 -424 -507 -664 -409 -622 -760 -1327 -1315 -2645 -307 -730 -317
-748 -422 -801 -129 -65 -291 -25 -434 109 -105 98 -101 77 -107 557 -8 632
-48 1024 -157 1529 -22 101 -40 200 -40 220 0 66 56 122 155 156 208 71 428
-24 529 -229 45 -91 64 -169 77 -309 6 -61 11 -113 12 -114 1 -1 31 76 66 170
270 726 625 1419 980 1912 245 342 474 585 719 763 112 81 304 176 407 201 99
24 257 27 340 6z"/>
</g>
</svg>
